<svg width="195.699" height="101.956" viewBox="0 0 195.699 101.956" xmlns="http://www.w3.org/2000/svg"><g id="svgGroup" stroke-linecap="round" fill-rule="nonzero" font-size="9pt" stroke="#6849ab" stroke-width="1" fill="#9b6bff" style="stroke:#6849ab;stroke-width:1;fill:#9b6bff"><path d="M 69.12 0.004 L 105.12 0.004 L 68.544 70.996 L 68.544 101.956 L 36.576 101.956 L 36.576 70.996 L 0 0.004 L 36.576 0.004 L 52.848 36.148 L 69.12 0.004 Z M 156.96 69.556 L 144.288 69.556 L 144.288 101.956 L 112.32 101.956 L 112.32 0.004 L 156.96 0.004 A 55.421 55.421 0 0 1 171.146 1.68 A 32.922 32.922 0 0 1 185.688 9.508 A 32.296 32.296 0 0 1 195.54 31.101 A 47.4 47.4 0 0 1 195.696 34.996 Q 195.696 44.644 191.232 52.492 Q 186.768 60.34 178.056 64.948 Q 169.344 69.556 156.96 69.556 Z M 153.36 25.636 L 144.288 25.636 L 144.288 44.356 L 153.36 44.356 A 11.465 11.465 0 0 0 160.02 42.659 Q 163.296 40.37 163.296 34.996 A 9.331 9.331 0 0 0 160.965 28.124 Q 158.716 25.869 154.297 25.658 A 19.618 19.618 0 0 0 153.36 25.636 Z"/></g></svg>